<svg xmlns="http://www.w3.org/2000/svg" >

  <symbol id="house-icon" viewBox="0 0 24 24" fill="none" stroke="currentColor" stroke-width="2">
    <path d="M20 17.0002V11.4522C20 10.9179 19.9995 10.6506 19.9346 10.4019C19.877 10.1816 19.7825 9.97307 19.6546 9.78464C19.5102 9.57201 19.3096 9.39569 18.9074 9.04383L14.1074 4.84383C13.3608 4.19054 12.9875 3.86406 12.5674 3.73982C12.1972 3.63035 11.8026 3.63035 11.4324 3.73982C11.0126 3.86397 10.6398 4.19014 9.89436 4.84244L5.09277 9.04383C4.69064 9.39569 4.49004 9.57201 4.3457 9.78464C4.21779 9.97307 4.12255 10.1816 4.06497 10.4019C4 10.6506 4 10.9179 4 11.4522V17.0002C4 17.932 4 18.3978 4.15224 18.7654C4.35523 19.2554 4.74432 19.6452 5.23438 19.8482C5.60192 20.0005 6.06786 20.0005 6.99974 20.0005C7.93163 20.0005 8.39808 20.0005 8.76562 19.8482C9.25568 19.6452 9.64467 19.2555 9.84766 18.7654C9.9999 18.3979 10 17.932 10 17.0001V16.0001C10 14.8955 10.8954 14.0001 12 14.0001C13.1046 14.0001 14 14.8955 14 16.0001V17.0001C14 17.932 14 18.3979 14.1522 18.7654C14.3552 19.2555 14.7443 19.6452 15.2344 19.8482C15.6019 20.0005 16.0679 20.0005 16.9997 20.0005C17.9316 20.0005 18.3981 20.0005 18.7656 19.8482C19.2557 19.6452 19.6447 19.2554 19.8477 18.7654C19.9999 18.3978 20 17.932 20 17.0002Z"/>
  </symbol>

  <symbol id="logout-icon" viewBox="0 0 48 48" fill="none" xmlns="http://www.w3.org/2000/svg">
    <path d="M33.6614 35.4C33.1607 34.8222 32.9104 34.1662 32.9104 33.432C32.9104 32.6996 33.1607 32.0889 33.6614 31.6L38.7141 26.6667H19.1181C18.3442 26.6667 17.696 26.4107 17.1735 25.8987C16.6491 25.3884 16.3869 24.7556 16.3869 24C16.3869 23.2444 16.6491 22.6107 17.1735 22.0987C17.696 21.5884 18.3442 21.3333 19.1181 21.3333H38.7141L33.6614 16.4C33.1152 15.8667 32.8421 15.2338 32.8421 14.5013C32.8421 13.7671 33.1152 13.1333 33.6614 12.6C34.1622 12.0667 34.7885 11.8 35.5405 11.8C36.2906 11.8 36.9161 12.0444 37.4168 12.5333L47.2489 22.1333C47.522 22.4 47.716 22.6889 47.8307 23C47.9436 23.3111 48 23.6444 48 24C48 24.3556 47.9436 24.6889 47.8307 25C47.716 25.3111 47.522 25.6 47.2489 25.8667L37.4168 35.4667C36.825 36.0444 36.1768 36.2996 35.4722 36.232C34.7657 36.1662 34.1622 35.8889 33.6614 35.4ZM5.4623 48C3.96017 48 2.6738 47.4782 1.60319 46.4347C0.534395 45.3893 0 44.1333 0 42.6667V5.33333C0 3.86667 0.534395 2.61067 1.60319 1.56533C2.6738 0.521778 3.96017 0 5.4623 0H21.8492C22.623 0 23.2721 0.255111 23.7965 0.765333C24.3191 1.27733 24.5804 1.91111 24.5804 2.66667C24.5804 3.42222 24.3191 4.05511 23.7965 4.56533C23.2721 5.07733 22.623 5.33333 21.8492 5.33333H5.4623V42.6667H21.8492C22.623 42.6667 23.2721 42.9227 23.7965 43.4347C24.3191 43.9449 24.5804 44.5778 24.5804 45.3333C24.5804 46.0889 24.3191 46.7218 23.7965 47.232C23.2721 47.744 22.623 48 21.8492 48H5.4623Z" fill="currentColor"/>
  </symbol>

  <symbol id="menu-icon" viewBox="0 0 24 24" fill="none" stroke="currentColor" stroke-width="2" stroke-linecap="round">
    <path d="M5 12H20"/>
    <path d="M5 17H20"/>
    <path d="M5 7H20"/>
  </symbol>

  <symbol id="close-icon" viewBox="0 0 24 24" fill="none" stroke="currentColor" stroke-width="2" stroke-linecap="round">
    <path d="M19 5L5 19M5.00001 5L19 19"/>
  </symbol>

  <symbol id="logo-sprite" viewBox="0 0 216 68" fill="currentColor">
    <path d="M41.5464 52.995H33.1597V23.6935L25.1601 52.995H16.2573L8.32219 23.8223V52.995H0V10.2341H13.1607L20.9022 41.5964L28.6438 10.2341H41.5464V52.995Z"/>
    <path d="M65.2429 53.961V48.8091C64.0817 51.6426 60.598 53.317 56.6627 53.317C50.0178 53.317 45.0503 48.8091 45.0503 41.854V21.3107H53.437V40.6304C53.437 44.5588 55.2434 46.5551 58.7916 46.5551C62.5979 46.5551 65.2429 44.0436 65.2429 40.6304V21.3107H73.6296V53.8322C73.6296 62.7837 67.1783 68 59.0497 68C49.7598 68 45.0503 62.9125 45.0503 54.7338H52.8564C52.8564 58.4689 55.0498 60.7873 59.4367 60.7873C62.4689 60.7873 65.2429 58.1469 65.2429 53.961Z"/>
    <path d="M122.089 46.8127C127.185 46.8127 129.766 43.5928 129.766 37.1529C129.766 30.713 127.185 27.5574 122.089 27.5574C116.992 27.5574 114.411 30.713 114.411 37.1529C114.411 43.5928 116.992 46.8127 122.089 46.8127ZM122.089 53.8322C111.831 53.8322 105.767 47.0059 105.767 37.1529C105.767 27.1066 112.025 20.4735 122.089 20.4735C132.024 20.4735 138.217 27.0422 138.217 37.1529C138.217 47.1991 131.959 53.8322 122.089 53.8322Z" />
    <path d="M156.865 46.8127C161.962 46.8127 164.542 43.5928 164.542 37.1529C164.542 30.713 161.962 27.5574 156.865 27.5574C151.769 27.5574 149.188 30.713 149.188 37.1529C149.188 43.5928 151.769 46.8127 156.865 46.8127ZM156.865 53.8322C146.608 53.8322 140.543 47.0059 140.543 37.1529C140.543 27.1066 146.801 20.4735 156.865 20.4735C166.8 20.4735 172.993 27.0422 172.993 37.1529C172.993 47.1991 166.736 53.8322 156.865 53.8322Z"/>
    <path d="M184.416 52.995H176.03V9.71888H184.416V52.995Z"/>
    <path d="M215.097 30.9062H207.033C206.581 27.815 204.904 26.7202 201.097 26.7202C197.936 26.7202 196.13 27.493 196.13 29.3606C196.13 31.2282 197.872 32.0009 201.291 32.9669C204.904 33.9973 208.323 34.7057 210.774 35.6717C214.129 37.0241 216 39.2136 216 43.3352C216 49.9039 211.161 53.8322 202.13 53.8322C192.388 53.8322 186.969 49.2599 186.84 42.82H195.485C195.485 45.7823 198.001 47.5211 202.065 47.5211C205.033 47.5211 207.678 46.6195 207.678 44.2368C207.678 41.9828 205.291 41.2744 202.581 40.6304C197.227 39.3424 194.259 38.4408 192.001 37.0241C189.034 35.1565 188.001 32.7093 188.001 29.8758C188.001 24.5307 191.679 20.4735 201.356 20.4735C210.516 20.4735 214.645 24.0799 215.097 30.9062Z"/>
    <path d="M71.4295 18.6644L68.7414 18.3289C68.4726 14.5723 75.7975 6.58954 80.5016 3.57083C84.2649 0.350882 93.9491 -0.789515 97.9811 0.552129C100.669 4.24166 106.717 4.24166 108.397 0.216718H115.453C117.469 1.55836 116.797 11.2853 115.453 12.6269H108.397L106.717 10.6145H101.341C98.527 10.6145 98.1031 15.7304 97.9739 18.783C97.9739 19.7893 97.9739 33.5412 97.9739 52.995H89.2378V18.783C88.969 3.75661 76.4696 10.9499 71.4295 18.6644Z"/>
  </symbol>

</svg>