<svg xmlns="http://www.w3.org/2000/svg" version="1.1" xmlns:xlink="http://www.w3.org/1999/xlink" width="78" height="78"><svg width="78" height="78" viewBox="0 0 78 78" fill="none" xmlns="http://www.w3.org/2000/svg">
<path d="M39 0C60.5391 0 78 17.4609 78 39C78 58.8793 63.1263 75.283 43.9004 77.6934V36.3496C44.0458 32.8799 44.5229 27.0645 47.6895 27.0645H53.7383L55.6289 29.3525H63.5684C65.0806 27.8276 65.8368 16.771 63.5684 15.2461H55.6289C53.7386 19.8209 46.9328 19.8215 43.9082 15.6279C39.3712 14.1031 28.4746 15.3988 24.2402 19.0586C18.9473 22.4898 10.7057 31.5631 11.0078 35.833L14.0322 36.2148C19.7033 27.4464 33.7679 19.2701 34.0703 36.3496V77.6904C14.8586 75.2671 0 58.8692 0 39C0 17.4609 17.4609 0 39 0Z" fill="white"></path>
</svg><style>@media (prefers-color-scheme: light) { :root { filter: contrast(1) brightness(0.1); } }
@media (prefers-color-scheme: dark) { :root { filter: none; } }
</style></svg>