<svg width="216" height="68" viewBox="0 0 216 68" fill="none" xmlns="http://www.w3.org/2000/svg">
<path d="M41.5464 52.995H33.1597V23.6935L25.1601 52.995H16.2573L8.32219 23.8223V52.995H0V10.2341H13.1607L20.9022 41.5964L28.6438 10.2341H41.5464V52.995Z" fill="white"/>
<path d="M65.2429 53.961V48.8091C64.0817 51.6426 60.598 53.317 56.6627 53.317C50.0178 53.317 45.0503 48.8091 45.0503 41.854V21.3107H53.437V40.6304C53.437 44.5588 55.2434 46.5551 58.7916 46.5551C62.5979 46.5551 65.2429 44.0436 65.2429 40.6304V21.3107H73.6296V53.8322C73.6296 62.7837 67.1783 68 59.0497 68C49.7598 68 45.0503 62.9125 45.0503 54.7338H52.8564C52.8564 58.4689 55.0498 60.7873 59.4367 60.7873C62.4689 60.7873 65.2429 58.1469 65.2429 53.961Z" fill="white"/>
<path d="M122.089 46.8127C127.185 46.8127 129.766 43.5928 129.766 37.1529C129.766 30.713 127.185 27.5574 122.089 27.5574C116.992 27.5574 114.411 30.713 114.411 37.1529C114.411 43.5928 116.992 46.8127 122.089 46.8127ZM122.089 53.8322C111.831 53.8322 105.767 47.0059 105.767 37.1529C105.767 27.1066 112.025 20.4735 122.089 20.4735C132.024 20.4735 138.217 27.0422 138.217 37.1529C138.217 47.1991 131.959 53.8322 122.089 53.8322Z" fill="white"/>
<path d="M156.865 46.8127C161.962 46.8127 164.542 43.5928 164.542 37.1529C164.542 30.713 161.962 27.5574 156.865 27.5574C151.769 27.5574 149.188 30.713 149.188 37.1529C149.188 43.5928 151.769 46.8127 156.865 46.8127ZM156.865 53.8322C146.608 53.8322 140.543 47.0059 140.543 37.1529C140.543 27.1066 146.801 20.4735 156.865 20.4735C166.8 20.4735 172.993 27.0422 172.993 37.1529C172.993 47.1991 166.736 53.8322 156.865 53.8322Z" fill="white"/>
<path d="M184.416 52.995H176.03V9.71888H184.416V52.995Z" fill="white"/>
<path d="M215.097 30.9062H207.033C206.581 27.815 204.904 26.7202 201.097 26.7202C197.936 26.7202 196.13 27.493 196.13 29.3606C196.13 31.2282 197.872 32.0009 201.291 32.9669C204.904 33.9973 208.323 34.7057 210.774 35.6717C214.129 37.0241 216 39.2136 216 43.3352C216 49.9039 211.161 53.8322 202.13 53.8322C192.388 53.8322 186.969 49.2599 186.84 42.82H195.485C195.485 45.7823 198.001 47.5211 202.065 47.5211C205.033 47.5211 207.678 46.6195 207.678 44.2368C207.678 41.9828 205.291 41.2744 202.581 40.6304C197.227 39.3424 194.259 38.4408 192.001 37.0241C189.034 35.1565 188.001 32.7093 188.001 29.8758C188.001 24.5307 191.679 20.4735 201.356 20.4735C210.516 20.4735 214.645 24.0799 215.097 30.9062Z" fill="white"/>
<path d="M71.4295 18.6644L68.7414 18.3289C68.4726 14.5723 75.7975 6.58954 80.5016 3.57083C84.2649 0.350882 93.9491 -0.789515 97.9811 0.552129C100.669 4.24166 106.717 4.24166 108.397 0.216718H115.453C117.469 1.55836 116.797 11.2853 115.453 12.6269H108.397L106.717 10.6145H101.341C98.527 10.6145 98.1031 15.7304 97.9739 18.783C97.9739 19.7893 97.9739 33.5412 97.9739 52.995H89.2378V18.783C88.969 3.75661 76.4696 10.9499 71.4295 18.6644Z" fill="white"/>
</svg>
