<svg width="48" height="48" viewBox="0 0 48 48" fill="none" xmlns="http://www.w3.org/2000/svg">
<path d="M33.6614 35.4C33.1607 34.8222 32.9104 34.1662 32.9104 33.432C32.9104 32.6996 33.1607 32.0889 33.6614 31.6L38.7141 26.6667H19.1181C18.3442 26.6667 17.696 26.4107 17.1735 25.8987C16.6491 25.3884 16.3869 24.7556 16.3869 24C16.3869 23.2444 16.6491 22.6107 17.1735 22.0987C17.696 21.5884 18.3442 21.3333 19.1181 21.3333H38.7141L33.6614 16.4C33.1152 15.8667 32.8421 15.2338 32.8421 14.5013C32.8421 13.7671 33.1152 13.1333 33.6614 12.6C34.1622 12.0667 34.7885 11.8 35.5405 11.8C36.2906 11.8 36.9161 12.0444 37.4168 12.5333L47.2489 22.1333C47.522 22.4 47.716 22.6889 47.8307 23C47.9436 23.3111 48 23.6444 48 24C48 24.3556 47.9436 24.6889 47.8307 25C47.716 25.3111 47.522 25.6 47.2489 25.8667L37.4168 35.4667C36.825 36.0444 36.1768 36.2996 35.4722 36.232C34.7657 36.1662 34.1622 35.8889 33.6614 35.4ZM5.4623 48C3.96017 48 2.6738 47.4782 1.60319 46.4347C0.534395 45.3893 0 44.1333 0 42.6667V5.33333C0 3.86667 0.534395 2.61067 1.60319 1.56533C2.6738 0.521778 3.96017 0 5.4623 0H21.8492C22.623 0 23.2721 0.255111 23.7965 0.765333C24.3191 1.27733 24.5804 1.91111 24.5804 2.66667C24.5804 3.42222 24.3191 4.05511 23.7965 4.56533C23.2721 5.07733 22.623 5.33333 21.8492 5.33333H5.4623V42.6667H21.8492C22.623 42.6667 23.2721 42.9227 23.7965 43.4347C24.3191 43.9449 24.5804 44.5778 24.5804 45.3333C24.5804 46.0889 24.3191 46.7218 23.7965 47.232C23.2721 47.744 22.623 48 21.8492 48H5.4623Z" fill="#9B9B9B"/>
</svg>
